<?xml version="1.0" encoding="UTF-8"?>
<svg id="Ebene_2" data-name="Ebene 2" xmlns="http://www.w3.org/2000/svg" xmlns:xlink="http://www.w3.org/1999/xlink" viewBox="0 0 133.67 25.41">
  <defs>
    <style>
      .cls-1 {
        fill: url(#linear-gradient-2);
      }

      .cls-2, .cls-3 {
        fill: #fff;
      }

      .cls-3 {
        fill-rule: evenodd;
      }

      .cls-4 {
        fill: #b7b7b7;
        font-family: Montserrat-Regular, Montserrat;
        font-size: 4.62px;
      }

      .cls-5 {
        letter-spacing: .16em;
      }

      .cls-6 {
        letter-spacing: .2em;
      }

      .cls-7 {
        fill: url(#linear-gradient-3);
      }

      .cls-8 {
        fill: url(#linear-gradient);
      }

      .cls-9 {
        fill: url(#linear-gradient-4);
      }

      .cls-10 {
        letter-spacing: .2em;
      }

      .cls-11 {
        letter-spacing: .19em;
      }
    </style>
    <linearGradient id="linear-gradient" x1="6.99" y1="-5.33" x2="40.76" y2="28.43" gradientUnits="userSpaceOnUse">
      <stop offset="0" stop-color="#de384e"/>
      <stop offset=".2" stop-color="#d83447"/>
      <stop offset=".47" stop-color="#c82c35"/>
      <stop offset=".79" stop-color="#af1e17"/>
      <stop offset="1" stop-color="#9b1400"/>
    </linearGradient>
    <linearGradient id="linear-gradient-2" x1="56.5" y1="6.67" x2="62.74" y2="12.92" xlink:href="#linear-gradient"/>
    <linearGradient id="linear-gradient-3" x1="63.63" y1="6.83" x2="69.69" y2="12.89" xlink:href="#linear-gradient"/>
    <linearGradient id="linear-gradient-4" x1="71.36" y1="9.47" x2="73.72" y2="11.83" xlink:href="#linear-gradient"/>
  </defs>
  <g id="OBJECTS">
    <g>
      <g>
        <g>
          <path class="cls-2" d="m80.97,9.66h1.66v3.53c-.86.72-2.05,1.11-3.17,1.11-2.46,0-4.28-1.88-4.28-4.5s1.81-4.5,4.31-4.5c1.38,0,2.52.52,3.28,1.5l-1.16,1.19c-.57-.67-1.23-.98-2.03-.98-1.52,0-2.56,1.13-2.56,2.79s1.04,2.79,2.54,2.79c.49,0,.95-.1,1.41-.37v-2.55Z"/>
          <path class="cls-2" d="m90.37,12.53v1.62h-6.07V5.44h5.92v1.62h-4.12v1.89h3.64v1.57h-3.64v2.01h4.27Z"/>
          <path class="cls-2" d="m99.01,5.44v8.71h-1.49l-3.91-5.29v5.29h-1.79V5.44h1.5l3.9,5.29v-5.29h1.79Z"/>
          <path class="cls-2" d="m100.37,9.8c0-2.62,1.81-4.5,4.26-4.5,1.35,0,2.49.55,3.23,1.54l-1.17,1.19c-.53-.67-1.19-1.02-1.97-1.02-1.47,0-2.51,1.14-2.51,2.79s1.04,2.79,2.51,2.79c.78,0,1.44-.35,1.97-1.03l1.17,1.19c-.74,1.01-1.87,1.55-3.24,1.55-2.43,0-4.24-1.88-4.24-4.5Z"/>
          <path class="cls-2" d="m108.41,9.8c0-2.59,1.81-4.5,4.29-4.5s4.29,1.9,4.29,4.5-1.83,4.5-4.29,4.5-4.29-1.92-4.29-4.5Zm6.74,0c0-1.65-1.05-2.79-2.45-2.79s-2.45,1.13-2.45,2.79,1.05,2.79,2.45,2.79,2.45-1.13,2.45-2.79Z"/>
          <path class="cls-2" d="m118.35,5.44h3.56c2.56,0,4.32,1.72,4.32,4.35s-1.76,4.35-4.32,4.35h-3.56V5.44Zm3.47,7.05c1.56,0,2.58-1.03,2.58-2.7s-1.02-2.7-2.58-2.7h-1.66v5.4h1.66Z"/>
          <path class="cls-2" d="m133.67,12.53v1.62h-6.07V5.44h5.92v1.62h-4.12v1.89h3.64v1.57h-3.64v2.01h4.27Z"/>
          <text class="cls-4" transform="translate(69.63 20.65) scale(.9 1)"><tspan class="cls-6" x="0" y="0">GENER</tspan><tspan class="cls-5" x="21.46" y="0">A</tspan><tspan class="cls-11" x="25.53" y="0">T</tspan><tspan class="cls-10" x="29.06" y="0">OR BE</tspan><tspan class="cls-5" x="48.67" y="0">T</tspan><tspan class="cls-10" x="52.08" y="0">A</tspan></text>
        </g>
        <g>
          <path class="cls-8" d="m46.44,14.52h-3.96c-1.16,0-2.12-.82-2.12-1.81s.95-1.81,2.12-1.81h1.16c1.17,0,2.12-.82,2.12-1.81s-.95-1.82-2.12-1.82h-5.51c-1.16,0-2.12-.82-2.12-1.81s.93-1.8,2.08-1.81h2c1.16,0,2.12-.82,2.12-1.81s-.95-1.81-2.12-1.81H9.11c-1.17,0-2.12.82-2.12,1.81s.95,1.81,2.12,1.81h1.18c1.15.01,2.09.82,2.09,1.81s-.95,1.81-2.12,1.81H2.12c-1.16,0-2.12.82-2.12,1.81s.95,1.81,2.12,1.81h5.69c1.16,0,2.12.82,2.12,1.81s-.95,1.82-2.12,1.82h-1.39c-1.17,0-2.12.82-2.12,1.81s.95,1.82,2.12,1.82h5.15c1.16,0,2.12.82,2.12,1.81s-.93,1.8-2.08,1.81h-1.65c-1.16,0-2.12.82-2.12,1.81s.95,1.81,2.12,1.81h31c1.16,0,2.12-.82,2.12-1.82s-.95-1.81-2.12-1.81h-1.03c-1.15-.01-2.09-.82-2.09-1.81s.95-1.81,2.12-1.81h6.5c1.16,0,2.12-.82,2.12-1.81s-.95-1.82-2.12-1.82Z"/>
          <path class="cls-3" d="m25.09,9.09h-.35v-.06c.1,0,.16-.02.11-.1-.06-.13.22-.12.26-.09.07.05.03.19-.02.26h0Zm-.48.09h.43c-.05.07-.18.31-.27.31-.03-.05-.15-.2-.16-.31h0Zm2.97-3.62s-.07.03-.12.04c-.24.34-.09.3-.51.58,0,.56.02.62.15,1.12,0,.01,0,.02,0,.03,0,.01-.02.02-.03.02-.1.02-.25.06-.33.07,0,.02.04.34,0,.57-.07.37-.96,1.19-1.17,1.23-.29.06-.62-.2-1.13-.43-.14-.06-.61-.37-.86-.46-.21-.07-.41.43-.16.57.12.06.31.15.37.3.18.46-.03,2.23-.39,2.59-.17,0-.32-.16-.45-.12-.23.13-.08.83,0,.95,1.42,1.46,1.25,2.54,1.85,3.34.27,0,.09.29.3.63.06.18-.02.47-.05.59v.44s-.03.09-.05.14v.38c-.04.19-.09.44-.13.61-.08.37.24.66.05,1.01,0,.22,0,.17-.13.35,0,.34-.08,1.04,0,1.29.05.17.68.91.84.98.38.17.94.13.76.73-1.11.34-1.82-.19-2.42-.2l-.03.1c-.38,0-.68-.09-.77-.12,0-.1.12-.89.16-1.02.04-.07.09-.13.13-.2.05-.13-.05-1.12-.05-1.38-.24-.17-.28-.71-.28-1-.07-.23-.07-.49-.08-.79,0-.14-.09-.34-.04-.51.04-.12.17-.17.2-.27v-.33c.06-.35.04-.51-.16-.71-.52,0-.59.03-.88-.41-.09-.14-.82-1.29-.89-1.32-.61-.26-.49-.16-.75-.63-.01,0-.17.05-.31.27-.22.32-.6,1.38-.71,1.75-.06.21,0,.43-.09.6-.07.12-.28.16-.33.25-.21.38-.05.35-.46.62-.07.09-.07.23-.13.35-.03.04-.06.09-.09.13-.07.15.07.41.05.5-.07.24-.16.48-.26.7-.19.44-.16,1.02-.35,1.29-.09.14-.32,0-.49.11-.01.09-.28.72-.34.9v1c.05.17.19.33.15.54-.04.23-.83.22-1.26.16-.29-.04-.37-.25-.37-.5,0-.29.59-2.16.55-2.28-.44-.5.12-1.01.28-1.47.08-.23.03-.54.12-.75.16-.28.31-.57.47-.85.28-.27.16-.28.31-.52.13-.21.3-.35.2-.67-.19-.64.22-1.55.25-2.22-.07-.08-.32-.05-.35-.26-.06-.42.16-1.16.29-1.23.06-.03.13,0,.18-.04,0-.31-.31-2.05-.07-2.14.15-.05.48-.08.54-.11,0-.07-.05-.23-.12-.24-.1-.01-.32-.05-.49-.09-.52-.12-.04-2.17-.03-2.18.14-.19.81.07.89-.26.22-.28-.17-1.37.59-2.72.26-.45.75-.91,1.32-.72.19.07.08.34.41.05,0-.17-.07-.32-.12-.46-.56-1.67,1.34-2.57,2.66-1.62.15.06.24.09.35.17.07.38.45,1.05.07,1.49-.15.03-.34.12-.46.2,0,.15.02.29.05.38.03.08.07.11-.05.16-.02,0,0,.06,0,.08.31.06.64-.06.85-.14h.25v-.31h.12v-.24h.12v.42h.31v.13h4.57v.24h.2v-.87h.17v.71h.39v.4h1.21v-.12h.2v.05h.57v.34h-.57v.05h-.2v-.12h-1.21v.12h-.53v-.08h-.23v.24h-2.02Z"/>
          <path class="cls-3" d="m35.22,14.72h-2.29c-.41,0-.75.34-.75.75v1.97c0,.41.34.75.75.75h2.29c.42,0,.75-.34.75-.75v-1.97c0-.42-.34-.75-.75-.75Zm-.01,2.72h-2.26v-1.97h2.26v1.97Z"/>
          <path class="cls-3" d="m28.3,15.47h3.15c0-.41-.34-.75-.75-.75h-2.42c-.41,0-.75.34-.75.75v1.97c0,.41.34.75.75.75h2.42c.41,0,.75-.34.75-.75v-1.3h-2.56c0,.32.26.58.58.58h1.26v.72h-2.43v-1.97h0Z"/>
          <path class="cls-3" d="m32.81,11.22h3.01c0-.41-.34-.75-.75-.75h-2.33c-.41,0-.75.34-.75.75v.61c0,.41.34.75.75.75h2.33v.61h-3.09c0,.41.34.75.75.75h2.41c.41,0,.75-.34.75-.75v-.61c0-.41-.34-.75-.75-.75h-2.33v-.61h0Z"/>
          <path class="cls-3" d="m28.48,11.22h2.84c0-.41-.34-.75-.75-.75h-2.29c-.41,0-.75.34-.75.75v1.97c0,.41.34.75.75.75h2.29c.41,0,.75-.34.75-.75h-2.84v-1.97h0Z"/>
        </g>
      </g>
      <g>
        <path class="cls-1" d="m59.71,7.01c.78,0,1.44.35,1.97,1.02l1.17-1.19c-2.35-3.13-7.72-1.17-7.48,2.96-.24,4.14,5.14,6.09,7.48,2.95l-1.17-1.19c-3.53,4.08-6.86-4.32-1.97-4.54Z"/>
        <path class="cls-7" d="m65.34,7.91c.04-1.44,2.64-1.09,3.66-.31l.56-1.53c-1.95-1.53-6.32-.69-6.03,1.94,0,3.23,4.56,2.11,4.56,3.74-.11,1.57-3.29.86-4.1.03l-.62,1.52c1.74,1.71,6.85,1.19,6.52-1.69,0-3.2-4.56-2.09-4.56-3.69Z"/>
        <rect class="cls-9" x="70.95" y="9.87" width="3.17" height="1.55"/>
      </g>
    </g>
  </g>
</svg>